<svg width="320" height="400" viewBox="0 0 320 400" fill="none" xmlns="http://www.w3.org/2000/svg">
<circle cx="159.431" cy="103.667" r="58.1667" stroke="#3a3a3a" stroke-width="3"/>
<path d="M239.447 284V284.011L239.447 284.022C239.837 310.623 238.136 330.268 232.141 347.783C226.206 365.122 216.02 380.497 199.238 398.5H120.765C104.68 378.905 95.0535 362.698 89.2263 345.316C83.3409 327.761 81.2957 308.908 80.5 283.976V228.12C80.5 211.597 87.2581 194.529 97.956 182.8C108.637 171.09 123.073 164.849 138.574 169.438C142.023 170.459 144.267 171.367 146.263 172.174C147.302 172.594 148.274 172.987 149.314 173.354C152.317 174.416 155.369 175.034 161.009 175C166.578 174.967 169.505 174.587 172.523 173.659C173.985 173.21 175.453 172.636 177.208 171.95L177.248 171.935C179.033 171.238 181.161 170.406 183.995 169.416C198.645 164.295 212.407 170.177 222.653 181.56C232.918 192.963 239.447 209.707 239.447 225.643V284Z" stroke="#3a3a3a" stroke-width="3"/>
</svg>
